<svg xmlns="http://www.w3.org/2000/svg" width="146" height="24" viewBox="0 0 146 24">
    <path fill="#0AB775" fill-rule="nonzero" d="M11.651 20.194c.838.91.655 2.185-.364 2.768C10.177 23.636 8.866 24 7.464 24 3.35 24 .182 20.686 0 16.534V1.84C0 .856.82.036 1.82.036A1.81 1.81 0 0 1 3.641 1.84v5.427h5.48c.983 0 1.802.819 1.802 1.82a1.81 1.81 0 0 1-1.802 1.821H3.623v5.627c0 2.13 1.73 3.86 3.841 3.86.728 0 1.402-.182 1.984-.528.71-.418 1.62-.218 2.203.328zm14.564-13.11c.983 0 1.82.8 1.82 1.802v7.776c0 4.151-3.313 7.338-7.372 7.338-4.06 0-7.373-3.187-7.373-7.338V8.886c0-1.001.837-1.803 1.838-1.803h.018a1.78 1.78 0 0 1 1.785 1.803v7.776c0 2.13 1.674 3.733 3.732 3.733 2.057 0 3.732-1.603 3.732-3.733V8.886a1.81 1.81 0 0 1 1.82-1.803zm13.872.163c1.183.401 1.639 1.84.856 2.805-.455.6-1.256.874-1.985.619a3.92 3.92 0 0 0-1.238-.2c-2.057 0-3.695 1.602-3.695 3.732v7.776c0 .983-.801 1.784-1.784 1.802-1.02.019-1.857-.837-1.857-1.857v-7.72c0-4.152 3.277-7.34 7.336-7.34.838 0 1.62.128 2.367.383zm12.216 12.601c.71-.419 1.602-.273 2.184.292.838.819.637 2.203-.364 2.804A7.46 7.46 0 0 1 50.282 24c-4.114 0-7.319-3.314-7.5-7.466V1.84c0-.983.837-1.675 1.838-1.675 1.001 0 1.802.674 1.802 1.675v5.427h5.553c.983 0 1.802.819 1.802 1.82a1.81 1.81 0 0 1-1.802 1.821h-5.553v5.627c.182 2.13 1.766 3.86 3.878 3.86.71 0 1.42-.2 2.003-.546zm10.23.547a1.75 1.75 0 0 1 1.166 1.711v.055a1.767 1.767 0 0 1-2.349 1.693c-2.949-1.001-5.115-3.805-5.115-7.12V2.04c0-.983.8-1.784 1.784-1.802 1.02-.018 1.857.837 1.857 1.857v14.64c0 1.712 1.147 3.15 2.658 3.66zm9.904-13.457a8.505 8.505 0 0 1 8.738 8.54v.018c0 1.002-.837 1.803-1.838 1.803H68.104a4.847 4.847 0 0 0 4.533 3.06c.838 0 1.62-.201 2.294-.565a1.796 1.796 0 0 1 2.112.327 1.812 1.812 0 0 1-.437 2.877 8.504 8.504 0 0 1-3.95.966c-4.77 0-8.63-3.915-8.52-8.705.109-4.515 3.786-8.212 8.301-8.321zm27.235.2c3.677 0 6.644 2.932 6.626 6.647v8.412c0 .984-.819 1.803-1.82 1.803a1.81 1.81 0 0 1-1.82-1.803v-8.412c0-1.712-1.33-3.041-3.005-3.041-1.674 0-3.003 1.329-3.003 3.04v8.413c0 .984-.82 1.803-1.82 1.803a1.81 1.81 0 0 1-1.821-1.803v-8.412c0-1.712-1.33-3.041-3.004-3.041-1.675 0-3.004 1.329-3.004 3.04v8.413c0 .984-.82 1.803-1.82 1.803a1.81 1.81 0 0 1-1.82-1.803v-8.394a6.617 6.617 0 0 1 6.644-6.665c1.911 0 3.604.801 4.824 2.094a6.622 6.622 0 0 1 4.843-2.094zm11.56 1.439a1.81 1.81 0 0 1 1.82 1.802v11.818c0 .984-.819 1.803-1.82 1.803a1.81 1.81 0 0 1-1.82-1.803V10.38c0-.983.818-1.802 1.82-1.802zm.018-2.604a1.857 1.857 0 1 1 0-3.715 1.857 1.857 0 0 1 0 3.715zm12.27 1.056c4.06 0 7.373 3.205 7.373 7.338v7.776c0 .983-.82 1.802-1.82 1.802a1.81 1.81 0 0 1-1.821-1.802v-7.776c0-2.13-1.675-3.733-3.732-3.733-2.057 0-3.732 1.603-3.732 3.733v7.776c0 .983-.82 1.802-1.82 1.802a1.81 1.81 0 0 1-1.821-1.802v-7.776c0-4.152 3.313-7.338 7.373-7.338zm21.627 13.074c.82.838.638 2.222-.364 2.804a7.46 7.46 0 0 1-3.841 1.057c-4.114 0-7.318-3.315-7.5-7.466V1.803c0-.984.819-1.803 1.82-1.803a1.81 1.81 0 0 1 1.82 1.803v5.463h5.553c.983 0 1.802.819 1.802 1.82a1.81 1.81 0 0 1-1.802 1.821h-5.552v5.573c.182 2.13 1.747 3.86 3.859 3.86.728 0 1.42-.2 2.003-.546.71-.42 1.62-.274 2.202.31zM68.104 13.64h9.121a4.884 4.884 0 0 0-4.551-3.114 4.908 4.908 0 0 0-4.57 3.114z"/>
</svg>
